<mxfile host="app.diagrams.net" modified="2023-03-24T20:00:30.481Z" agent="Mozilla/5.0 (X11; Linux x86_64) AppleWebKit/537.36 (KHTML, like Gecko) Chrome/111.0.0.0 Safari/537.36" etag="ezxaTpTEwuLGgfbxZe99" version="21.1.1" type="github">
  <diagram id="C5RBs43oDa-KdzZeNtuy" name="Page-1">
    <mxGraphModel dx="1434" dy="736" grid="1" gridSize="10" guides="1" tooltips="1" connect="1" arrows="1" fold="1" page="1" pageScale="1" pageWidth="827" pageHeight="1169" math="0" shadow="0">
      <root>
        <mxCell id="WIyWlLk6GJQsqaUBKTNV-0" />
        <mxCell id="WIyWlLk6GJQsqaUBKTNV-1" parent="WIyWlLk6GJQsqaUBKTNV-0" />
        <mxCell id="PnOluQsKvU0_AQcj1WwR-28" value="" style="edgeStyle=orthogonalEdgeStyle;rounded=0;orthogonalLoop=1;jettySize=auto;html=1;align=center;" edge="1" parent="WIyWlLk6GJQsqaUBKTNV-1" source="PnOluQsKvU0_AQcj1WwR-26" target="PnOluQsKvU0_AQcj1WwR-27">
          <mxGeometry relative="1" as="geometry" />
        </mxCell>
        <mxCell id="PnOluQsKvU0_AQcj1WwR-26" value="Define the endpoint for the &lt;b&gt;SpaceX API.&lt;/b&gt;" style="rounded=1;whiteSpace=wrap;html=1;absoluteArcSize=1;arcSize=14;strokeWidth=2;align=center;" vertex="1" parent="WIyWlLk6GJQsqaUBKTNV-1">
          <mxGeometry x="4" y="280" width="100" height="100" as="geometry" />
        </mxCell>
        <mxCell id="PnOluQsKvU0_AQcj1WwR-30" value="" style="edgeStyle=orthogonalEdgeStyle;rounded=0;orthogonalLoop=1;jettySize=auto;html=1;align=center;" edge="1" parent="WIyWlLk6GJQsqaUBKTNV-1" source="PnOluQsKvU0_AQcj1WwR-27" target="PnOluQsKvU0_AQcj1WwR-29">
          <mxGeometry relative="1" as="geometry" />
        </mxCell>
        <mxCell id="PnOluQsKvU0_AQcj1WwR-27" value="Use the requests library to send a &lt;b&gt;GET request&lt;/b&gt; to the endpoint." style="rounded=1;whiteSpace=wrap;html=1;absoluteArcSize=1;arcSize=14;strokeWidth=2;align=center;" vertex="1" parent="WIyWlLk6GJQsqaUBKTNV-1">
          <mxGeometry x="184" y="280" width="100" height="100" as="geometry" />
        </mxCell>
        <mxCell id="PnOluQsKvU0_AQcj1WwR-37" style="edgeStyle=orthogonalEdgeStyle;rounded=0;orthogonalLoop=1;jettySize=auto;html=1;exitX=1;exitY=0.5;exitDx=0;exitDy=0;align=center;" edge="1" parent="WIyWlLk6GJQsqaUBKTNV-1" source="PnOluQsKvU0_AQcj1WwR-29" target="PnOluQsKvU0_AQcj1WwR-36">
          <mxGeometry relative="1" as="geometry" />
        </mxCell>
        <mxCell id="PnOluQsKvU0_AQcj1WwR-29" value="Parse the response using the &lt;b&gt;json library&lt;/b&gt; to extract the relevant data." style="rounded=1;whiteSpace=wrap;html=1;absoluteArcSize=1;arcSize=14;strokeWidth=2;align=center;" vertex="1" parent="WIyWlLk6GJQsqaUBKTNV-1">
          <mxGeometry x="364" y="280" width="100" height="100" as="geometry" />
        </mxCell>
        <mxCell id="PnOluQsKvU0_AQcj1WwR-31" value="" style="edgeStyle=orthogonalEdgeStyle;rounded=0;orthogonalLoop=1;jettySize=auto;html=1;align=center;" edge="1" parent="WIyWlLk6GJQsqaUBKTNV-1" source="PnOluQsKvU0_AQcj1WwR-32" target="PnOluQsKvU0_AQcj1WwR-34">
          <mxGeometry relative="1" as="geometry" />
        </mxCell>
        <mxCell id="PnOluQsKvU0_AQcj1WwR-32" value="Define the &lt;b&gt;URL for the Wikipedia page&lt;/b&gt; to be scraped." style="rounded=1;whiteSpace=wrap;html=1;absoluteArcSize=1;arcSize=14;strokeWidth=2;align=center;" vertex="1" parent="WIyWlLk6GJQsqaUBKTNV-1">
          <mxGeometry x="4" y="450" width="100" height="100" as="geometry" />
        </mxCell>
        <mxCell id="PnOluQsKvU0_AQcj1WwR-33" value="" style="edgeStyle=orthogonalEdgeStyle;rounded=0;orthogonalLoop=1;jettySize=auto;html=1;align=center;" edge="1" parent="WIyWlLk6GJQsqaUBKTNV-1" source="PnOluQsKvU0_AQcj1WwR-34" target="PnOluQsKvU0_AQcj1WwR-35">
          <mxGeometry relative="1" as="geometry" />
        </mxCell>
        <mxCell id="PnOluQsKvU0_AQcj1WwR-34" value="Use the requests library to send a &lt;b&gt;GET request &lt;/b&gt;to the URL." style="rounded=1;whiteSpace=wrap;html=1;absoluteArcSize=1;arcSize=14;strokeWidth=2;align=center;" vertex="1" parent="WIyWlLk6GJQsqaUBKTNV-1">
          <mxGeometry x="184" y="450" width="100" height="100" as="geometry" />
        </mxCell>
        <mxCell id="PnOluQsKvU0_AQcj1WwR-38" style="edgeStyle=orthogonalEdgeStyle;rounded=0;orthogonalLoop=1;jettySize=auto;html=1;exitX=1;exitY=0.5;exitDx=0;exitDy=0;align=center;" edge="1" parent="WIyWlLk6GJQsqaUBKTNV-1" source="PnOluQsKvU0_AQcj1WwR-35" target="PnOluQsKvU0_AQcj1WwR-36">
          <mxGeometry relative="1" as="geometry" />
        </mxCell>
        <mxCell id="PnOluQsKvU0_AQcj1WwR-35" value="Parse the response using the &lt;b&gt;BeautifulSoup library&lt;/b&gt; to extract the relevant data." style="rounded=1;whiteSpace=wrap;html=1;absoluteArcSize=1;arcSize=14;strokeWidth=2;align=center;" vertex="1" parent="WIyWlLk6GJQsqaUBKTNV-1">
          <mxGeometry x="364" y="450" width="100" height="100" as="geometry" />
        </mxCell>
        <mxCell id="PnOluQsKvU0_AQcj1WwR-40" value="" style="edgeStyle=orthogonalEdgeStyle;rounded=0;orthogonalLoop=1;jettySize=auto;html=1;align=center;entryX=0;entryY=0.5;entryDx=0;entryDy=0;" edge="1" parent="WIyWlLk6GJQsqaUBKTNV-1" source="PnOluQsKvU0_AQcj1WwR-36" target="PnOluQsKvU0_AQcj1WwR-41">
          <mxGeometry relative="1" as="geometry">
            <mxPoint x="744" y="410" as="targetPoint" />
          </mxGeometry>
        </mxCell>
        <mxCell id="PnOluQsKvU0_AQcj1WwR-36" value="&lt;span style=&quot;color: rgb(0, 0, 0); font-family: Helvetica; font-size: 12px; font-style: normal; font-variant-ligatures: normal; font-variant-caps: normal; font-weight: 400; letter-spacing: normal; orphans: 2; text-indent: 0px; text-transform: none; widows: 2; word-spacing: 0px; -webkit-text-stroke-width: 0px; background-color: rgb(251, 251, 251); text-decoration-thickness: initial; text-decoration-style: initial; text-decoration-color: initial; float: none; display: inline !important;&quot;&gt;Store the extracted data in a &lt;/span&gt;&lt;span style=&quot;color: rgb(0, 0, 0); font-family: Helvetica; font-size: 12px; font-style: normal; font-variant-ligatures: normal; font-variant-caps: normal; letter-spacing: normal; orphans: 2; text-indent: 0px; text-transform: none; widows: 2; word-spacing: 0px; -webkit-text-stroke-width: 0px; background-color: rgb(251, 251, 251); text-decoration-thickness: initial; text-decoration-style: initial; text-decoration-color: initial; float: none; display: inline !important;&quot;&gt;&lt;b&gt;pandas dataframe&lt;/b&gt;&lt;/span&gt;&lt;span style=&quot;color: rgb(0, 0, 0); font-family: Helvetica; font-size: 12px; font-style: normal; font-variant-ligatures: normal; font-variant-caps: normal; font-weight: 400; letter-spacing: normal; orphans: 2; text-indent: 0px; text-transform: none; widows: 2; word-spacing: 0px; -webkit-text-stroke-width: 0px; background-color: rgb(251, 251, 251); text-decoration-thickness: initial; text-decoration-style: initial; text-decoration-color: initial; float: none; display: inline !important;&quot;&gt;.&lt;/span&gt;" style="rounded=1;whiteSpace=wrap;html=1;absoluteArcSize=1;arcSize=14;strokeWidth=2;align=center;" vertex="1" parent="WIyWlLk6GJQsqaUBKTNV-1">
          <mxGeometry x="564" y="360" width="100" height="100" as="geometry" />
        </mxCell>
        <mxCell id="PnOluQsKvU0_AQcj1WwR-41" value="&lt;span style=&quot;color: rgb(0, 0, 0); font-family: Helvetica; font-size: 12px; font-style: normal; font-variant-ligatures: normal; font-variant-caps: normal; letter-spacing: normal; orphans: 2; text-indent: 0px; text-transform: none; widows: 2; word-spacing: 0px; -webkit-text-stroke-width: 0px; background-color: rgb(251, 251, 251); text-decoration-thickness: initial; text-decoration-style: initial; text-decoration-color: initial; float: none; display: inline !important;&quot;&gt;&lt;b&gt;Merge the dataframes into a single dataframe&lt;/b&gt;&lt;/span&gt;&lt;span style=&quot;color: rgb(0, 0, 0); font-family: Helvetica; font-size: 12px; font-style: normal; font-variant-ligatures: normal; font-variant-caps: normal; font-weight: 400; letter-spacing: normal; orphans: 2; text-indent: 0px; text-transform: none; widows: 2; word-spacing: 0px; -webkit-text-stroke-width: 0px; background-color: rgb(251, 251, 251); text-decoration-thickness: initial; text-decoration-style: initial; text-decoration-color: initial; float: none; display: inline !important;&quot;&gt; for analysis.&lt;/span&gt;" style="rounded=1;whiteSpace=wrap;html=1;absoluteArcSize=1;arcSize=14;strokeWidth=2;align=center;" vertex="1" parent="WIyWlLk6GJQsqaUBKTNV-1">
          <mxGeometry x="724" y="360" width="100" height="100" as="geometry" />
        </mxCell>
      </root>
    </mxGraphModel>
  </diagram>
</mxfile>
